<svg xmlns="http://www.w3.org/2000/svg" width="40" height="40" viewBox="0 0 40 40">
  <g id="favorite" transform="translate(-293 -448)">
    <g id="Rectangle_431" data-name="Rectangle 431" transform="translate(293 448)" fill="#fff" stroke="#eee" stroke-width="1">
      <rect width="40" height="40" rx="12" stroke="none"/>
      <rect x="0.5" y="0.5" width="39" height="39" rx="11.5" fill="none"/>
    </g>
    <g id="bx-heart-circle" transform="translate(304 459)">
      <path id="Path_1148" data-name="Path 1148" d="M10.694,8.588l-.2.2-.2-.2A1.933,1.933,0,0,0,7.57,11.323l2.929,2.93,2.93-2.93a1.934,1.934,0,1,0-2.735-2.735Z" transform="translate(-1.5 -1.805)" fill="#5c3f87"/>
      <path id="Path_1149" data-name="Path 1149" d="M9,2a7,7,0,1,0,7,7A7.007,7.007,0,0,0,9,2ZM9,14.6A5.6,5.6,0,1,1,14.6,9,5.606,5.606,0,0,1,9,14.6Z" fill="#dbd6e4"/>
    </g>
  </g>
</svg>
